G05
M48
;#@! TF.GenerationSoftware,DesignSpark,DesignSpark PCB PRO,10.0.5299
;#@! TF.CreationDate,2022-12-21T16:36:23--9:00*
;#@! TF.FileFunction,Plated,1,2,Buried
;FILE_FORMAT=3:5
;TYPE=PLATED
INCH,TZ
FMAT,2
T1C000.01181
T2C000.01600
T3C000.02756
T4C000.03346
%
T001
X5.13654Y0.97831
X5.13654Y1.05331
X3.91685Y1.31581
X3.87935Y1.31581
X5.23654Y1.60731
X5.10991Y1.76233
X5.06997Y1.76331
X4.94517Y1.76331
X4.82036Y1.76331
X4.69431Y1.76331
X4.44470Y1.76331
X4.06905Y1.76331
X4.57325Y1.76353
X4.31990Y1.76353
X4.19510Y1.76353
X3.94549Y1.76353
X5.54672Y1.83966
X5.02404Y1.89081
X4.77404Y1.89081
X4.52404Y1.89081
X4.27404Y1.89081
X4.02404Y1.89081
X5.64281Y1.98568
X5.54547Y1.98568
X5.26217Y2.02831
X4.89904Y2.04081
X4.64884Y2.04184
X4.39884Y2.04184
X4.14884Y2.04184
X5.57404Y2.06680
X5.66154Y2.07831
X5.68654Y2.10331
X3.82194Y2.10549
X5.22404Y2.11581
X5.02404Y2.11581
X4.84904Y2.11581
X5.57404Y2.16581
X4.30742Y2.18661
X4.53956Y2.19784
X4.32989Y2.21656
X3.91804Y2.21781
X3.88054Y2.21781
X4.26124Y2.21783
X4.54080Y2.23528
X4.35235Y2.24901
X4.28371Y2.24933
X5.71154Y2.26581
X4.37481Y2.28021
X4.54080Y2.28082
X5.67404Y2.30331
X4.40102Y2.31141
X4.50835Y2.31232
X4.54330Y2.34381
X5.64904Y2.36581
X4.50960Y2.37531
X5.57404Y2.41581
X5.22404Y2.41581
X5.02404Y2.41581
X4.13894Y2.43830
X5.68654Y2.46581
X5.62404Y2.46581
X4.37404Y2.46581
X4.24904Y2.46581
X5.02404Y2.50331
X4.57404Y2.50331
X5.22404Y2.51581
X4.82404Y2.51581
X4.17404Y2.51581
X4.11154Y2.51581
X4.06156Y2.56726
X5.72404Y2.57831
X5.62404Y2.57831
X4.37404Y2.57831
X4.11148Y2.59578
X3.92404Y2.61581
X3.88654Y2.61581
X4.07279Y2.62728
X5.73654Y2.62831
X3.84987Y2.65331
X5.64904Y2.66581
X4.27404Y2.66581
X4.17404Y2.66581
X4.07154Y2.66581
X4.61943Y2.66585
X5.72404Y2.67831
X4.82404Y2.71581
X4.31117Y2.72177
X5.73654Y2.72831
X4.14904Y2.75326
X4.24904Y2.75331
X4.37981Y2.78317
X4.17404Y2.78476
X5.02404Y2.79081
X4.29904Y2.79081
X5.71154Y2.80331
X4.24904Y2.81581
X3.89987Y2.81581
X4.19904Y2.81626
X4.34613Y2.82435
X5.02404Y2.84081
X4.38106Y2.84775
X4.22404Y2.84775
X5.57404Y2.86581
X4.29904Y2.86581
X4.34361Y2.87925
X4.24904Y2.87925
X5.68654Y2.90331
X4.52404Y2.91581
X4.37404Y2.91581
X4.76545Y2.91920
X5.66154Y2.92831
X5.59904Y2.95331
X4.06237Y2.95331
X5.67404Y2.99081
X3.89987Y3.00331
X4.99904Y3.06581
X5.68669Y3.07831
X5.57404Y3.11581
X4.76670Y3.11639
X5.67404Y3.12816
X4.84907Y3.14759
X5.00008Y3.16581
X4.84907Y3.21000
X5.22404Y3.21581
X5.02404Y3.21581
X3.88506Y3.22831
X4.14904Y3.24993
X4.44904Y3.24994
X4.34904Y3.24994
X4.29904Y3.24994
X4.24904Y3.24994
X4.19904Y3.24994
X4.84907Y3.26491
X4.99904Y3.26581
X4.06154Y3.26581
X4.34904Y3.28987
X3.98743Y3.31483
X5.22404Y3.31581
X5.02404Y3.31581
X3.91154Y3.31581
X4.84904Y3.32831
X4.29993Y3.32831
X4.24876Y3.32831
X4.01302Y3.33730
X5.67404Y3.36581
X4.99904Y3.36581
X4.22404Y3.39081
X4.84904Y3.40331
X4.06420Y3.44081
X4.47091Y3.45331
X4.34904Y3.45331
X4.99904Y3.46581
X5.57404Y3.47831
X4.84904Y3.47831
X5.26154Y3.51581
X4.99904Y3.56581
X4.86404Y3.58815
X4.91022Y3.58940
X4.44904Y3.61561
X5.22404Y3.61581
X5.02404Y3.61581
X4.29993Y3.65554
X4.24876Y3.65554
X4.86404Y3.66303
X5.62404Y3.66581
X4.54904Y3.67676
X5.67404Y3.71581
X5.52404Y3.71581
X5.02404Y3.71581
X4.82404Y3.71581
X5.22404Y3.81581
X5.02404Y3.81581
X4.82404Y3.81581
X4.39904Y3.82831
X4.14904Y3.84081
X5.22404Y3.91581
X5.02404Y3.91581
X4.82404Y3.91581
X4.19904Y3.91581
X3.87061Y3.93385
X5.67404Y3.95331
X5.52404Y3.95331
X4.02404Y4.01373
X4.29904Y4.01498
X5.22404Y4.01581
X5.02404Y4.01581
X4.82404Y4.01581
X4.34904Y4.01622
X4.59904Y4.01747
X4.39904Y4.02831
X5.22404Y4.11581
X5.02404Y4.11581
X4.82404Y4.11581
X5.16279Y4.14259
X5.10663Y4.14259
X2.19127Y4.02817
X2.19127Y3.95317
X3.41096Y3.69067
X3.44846Y3.69067
X2.09127Y3.39917
X2.21791Y3.24415
X2.25784Y3.24317
X2.38265Y3.24317
X2.50745Y3.24317
X2.63350Y3.24317
X2.88311Y3.24317
X3.25876Y3.24317
X2.75456Y3.24296
X3.00791Y3.24296
X3.13271Y3.24296
X3.38232Y3.24296
X1.78109Y3.16683
X2.30377Y3.11567
X2.55377Y3.11567
X2.80377Y3.11567
X3.05377Y3.11567
X3.30377Y3.11567
X1.68500Y3.02081
X1.78234Y3.02081
X2.06565Y2.97817
X2.42877Y2.96567
X2.67897Y2.96465
X2.92897Y2.96465
X3.17897Y2.96465
X1.75377Y2.93969
X1.66627Y2.92817
X1.64127Y2.90317
X3.50587Y2.90100
X2.10377Y2.89067
X2.30377Y2.89067
X2.47877Y2.89067
X1.75377Y2.84067
X3.02039Y2.81987
X2.78826Y2.80864
X2.99793Y2.78992
X3.40978Y2.78867
X3.44728Y2.78867
X3.06657Y2.78865
X2.78701Y2.77120
X2.97546Y2.75747
X3.04410Y2.75716
X1.61627Y2.74067
X2.95300Y2.72627
X2.78701Y2.72566
X1.65377Y2.70317
X2.92679Y2.69507
X2.81946Y2.69417
X2.78451Y2.66267
X1.67877Y2.64067
X2.81821Y2.63117
X1.75377Y2.59067
X2.10377Y2.59067
X2.30377Y2.59067
X3.18887Y2.56818
X1.64127Y2.54067
X1.70377Y2.54067
X2.95377Y2.54067
X3.07877Y2.54067
X2.30377Y2.50317
X2.75377Y2.50317
X2.10377Y2.49067
X2.50377Y2.49067
X3.15377Y2.49067
X3.21627Y2.49067
X3.26625Y2.43922
X1.60377Y2.42817
X1.70377Y2.42817
X2.95377Y2.42817
X3.21633Y2.41070
X3.40377Y2.39067
X3.44127Y2.39067
X3.25502Y2.37920
X1.59127Y2.37817
X3.47794Y2.35317
X1.67877Y2.34067
X3.05377Y2.34067
X3.15377Y2.34067
X3.25627Y2.34067
X2.70838Y2.34063
X1.60377Y2.32817
X2.50377Y2.29067
X3.01665Y2.28472
X1.59127Y2.27817
X3.17877Y2.25322
X3.07877Y2.25317
X2.94800Y2.22331
X3.15377Y2.22172
X2.30377Y2.21567
X3.02877Y2.21567
X1.61627Y2.20317
X3.07877Y2.19067
X3.42794Y2.19067
X3.12877Y2.19023
X2.98169Y2.18213
X2.30377Y2.16567
X2.94676Y2.15873
X3.10377Y2.15873
X1.75377Y2.14067
X3.02877Y2.14067
X2.98420Y2.12724
X3.07877Y2.12724
X1.64127Y2.10317
X2.80377Y2.09067
X2.95377Y2.09067
X2.56236Y2.08728
X1.66627Y2.07817
X1.72877Y2.05317
X3.26544Y2.05317
X1.65377Y2.01567
X3.42794Y2.00317
X2.32877Y1.94067
X1.64112Y1.92817
X1.75377Y1.89067
X2.56111Y1.89009
X1.65377Y1.87833
X2.47874Y1.85889
X2.32773Y1.84067
X2.47874Y1.79649
X2.10377Y1.79067
X2.30377Y1.79067
X3.44275Y1.77817
X3.17877Y1.75655
X2.87877Y1.75654
X2.97877Y1.75654
X3.02877Y1.75654
X3.07877Y1.75654
X3.12877Y1.75654
X2.47874Y1.74157
X2.32877Y1.74067
X3.26627Y1.74067
X2.97877Y1.71661
X3.34039Y1.69165
X2.10377Y1.69067
X2.30377Y1.69067
X3.41627Y1.69067
X2.47877Y1.67817
X3.02788Y1.67817
X3.07905Y1.67817
X3.31480Y1.66919
X1.65377Y1.64067
X2.32877Y1.64067
X3.10377Y1.61567
X2.47877Y1.60317
X3.26361Y1.56567
X2.85690Y1.55317
X2.97877Y1.55317
X2.32877Y1.54067
X1.75377Y1.52817
X2.47877Y1.52817
X2.06627Y1.49067
X2.32877Y1.44067
X2.46377Y1.41833
X2.41759Y1.41709
X2.87877Y1.39088
X2.10377Y1.39067
X2.30377Y1.39067
X3.02788Y1.35094
X3.07905Y1.35094
X2.46377Y1.34345
X1.70377Y1.34067
X2.77877Y1.32972
X1.65377Y1.29067
X1.80377Y1.29067
X2.30377Y1.29067
X2.50377Y1.29067
X2.10377Y1.19067
X2.30377Y1.19067
X2.50377Y1.19067
X2.92877Y1.17817
X3.17877Y1.16567
X2.10377Y1.09067
X2.30377Y1.09067
X2.50377Y1.09067
X3.12877Y1.09067
X3.45720Y1.07263
X1.65377Y1.05317
X1.80377Y1.05317
X3.30377Y0.99276
X3.02877Y0.99151
X2.10377Y0.99067
X2.30377Y0.99067
X2.50377Y0.99067
X2.97877Y0.99026
X2.72877Y0.98901
X2.92877Y0.97817
X2.10377Y0.89067
X2.30377Y0.89067
X2.50377Y0.89067
X2.16502Y0.86389
X2.22118Y0.86389
T002
X5.27404Y0.56581
X5.02404Y0.56581
X4.77404Y0.56581
X4.52404Y0.56581
X4.27404Y0.56581
X4.02404Y0.56581
X5.27404Y0.81581
X5.02404Y0.81791
X4.77404Y0.81791
X4.52404Y0.81791
X4.27404Y0.81791
X5.67404Y0.99081
X5.39904Y0.99081
X3.77404Y1.06581
X5.02404Y1.06752
X4.27404Y1.06752
X5.67404Y1.21581
X5.39904Y1.21581
X3.77404Y1.31581
X5.02404Y1.31588
X4.77404Y1.31588
X4.52404Y1.31588
X4.27404Y1.31588
X5.67404Y1.44081
X5.39904Y1.44081
X5.02404Y1.46620
X4.77404Y1.46620
X4.52404Y1.46620
X4.27404Y1.46620
X4.02404Y1.46620
X3.77404Y1.56581
X5.76154Y1.62816
X5.69904Y1.62816
X5.69904Y1.72831
X5.29904Y1.79081
X5.24904Y1.79081
X3.77404Y1.81581
X5.29904Y1.86581
X5.24904Y1.86581
X5.66154Y1.89081
X5.61154Y1.89081
X5.47404Y1.96581
X5.41154Y1.96581
X5.74904Y1.98318
X3.99904Y2.16581
X5.74904Y2.17831
X3.77404Y2.31581
X5.74904Y2.37831
X5.74904Y2.47831
X4.57404Y2.70331
X3.77404Y2.81581
X5.76154Y2.87831
X4.37404Y2.96581
X5.76154Y3.07831
X4.06406Y3.09081
X5.76154Y3.17831
X4.59904Y3.25331
X5.76154Y3.27831
X3.77404Y3.31581
X5.76154Y3.37831
X3.77404Y3.56581
X5.76154Y3.57831
X4.07404Y3.65331
X3.97404Y3.65331
X4.92404Y3.71581
X5.76154Y3.77831
X4.59904Y3.82831
X3.92404Y3.89081
X3.77404Y3.89081
X5.69904Y4.01581
X5.52404Y4.01581
X3.77404Y4.14081
X5.52404Y4.25331
X3.77404Y4.39081
X5.47404Y4.41581
X5.41154Y4.41581
X5.68654Y4.42831
X5.52404Y4.42831
X3.87404Y4.42831
X5.07404Y4.44081
X4.82404Y4.44081
X4.57404Y4.44081
X4.33654Y4.44081
X2.05377Y4.44067
X2.30377Y4.44067
X2.55377Y4.44067
X2.80377Y4.44067
X3.05377Y4.44067
X3.30377Y4.44067
X2.05377Y4.19067
X2.30377Y4.18857
X2.55377Y4.18857
X2.80377Y4.18857
X3.05377Y4.18857
X1.65377Y4.01567
X1.92877Y4.01567
X3.55377Y3.94067
X2.30377Y3.93896
X3.05377Y3.93896
X1.65377Y3.79067
X1.92877Y3.79067
X3.55377Y3.69067
X2.30377Y3.69061
X2.55377Y3.69061
X2.80377Y3.69061
X3.05377Y3.69061
X1.65377Y3.56567
X1.92877Y3.56567
X2.30377Y3.54028
X2.55377Y3.54028
X2.80377Y3.54028
X3.05377Y3.54028
X3.30377Y3.54028
X3.55377Y3.44067
X1.56627Y3.37833
X1.62877Y3.37833
X1.62877Y3.27817
X2.02877Y3.21567
X2.07877Y3.21567
X3.55377Y3.19067
X2.02877Y3.14067
X2.07877Y3.14067
X1.66627Y3.11567
X1.71627Y3.11567
X1.85377Y3.04067
X1.91627Y3.04067
X1.57877Y3.02330
X3.32877Y2.84067
X1.57877Y2.82817
X3.55377Y2.69067
X1.57877Y2.62817
X1.57877Y2.52817
X2.75377Y2.30317
X3.55377Y2.19067
X1.56627Y2.12817
X2.95377Y2.04067
X1.56627Y1.92817
X3.26376Y1.91567
X1.56627Y1.82817
X2.72877Y1.75317
X1.56627Y1.72817
X3.55377Y1.69067
X1.56627Y1.62817
X3.55377Y1.44067
X1.56627Y1.42817
X3.25377Y1.35317
X3.35377Y1.35317
X2.40377Y1.29067
X1.56627Y1.22817
X2.72877Y1.17817
X3.40377Y1.11567
X3.55377Y1.11567
X1.62877Y0.99067
X1.80377Y0.99067
X3.55377Y0.86567
X1.80377Y0.75317
X3.55377Y0.61567
X1.85377Y0.59067
X1.91627Y0.59067
X1.64127Y0.57817
X1.80377Y0.57817
X3.45377Y0.57817
X2.25377Y0.56567
X2.50377Y0.56567
X2.75377Y0.56567
X2.99127Y0.56567
T003
X4.13654Y4.30331
X4.03811Y4.30331
X3.93969Y4.30331
X4.13654Y4.43323
X4.03811Y4.43323
X3.93969Y4.43323
X3.19127Y0.70317
X3.28970Y0.70317
X3.38812Y0.70317
X3.19127Y0.57325
X3.28970Y0.57325
X3.38812Y0.57325
T004
X5.32404Y2.06581
X4.72404Y2.06581
X5.32404Y2.16581
X4.72404Y2.16581
X5.32404Y2.26581
X4.72404Y2.26581
X5.32404Y2.36581
X4.72404Y2.36581
X5.32404Y2.46581
X4.72404Y2.46581
X5.32404Y2.56581
X4.72404Y2.56581
X5.32404Y2.66581
X4.72404Y2.66581
X5.32404Y2.76581
X4.72404Y2.76581
X5.32404Y2.86581
X4.72404Y2.86581
X5.32404Y2.96581
X4.72404Y2.96581
X5.32404Y3.06581
X4.72404Y3.06581
X5.32404Y3.16581
X4.72404Y3.16581
X5.32404Y3.26581
X4.72404Y3.26581
X5.32404Y3.36581
X4.72404Y3.36581
X5.32404Y3.46581
X4.72404Y3.46581
X5.32404Y3.56581
X4.72404Y3.56581
X5.32404Y3.66581
X4.72404Y3.66581
X5.32404Y3.76581
X4.72404Y3.76581
X5.32404Y3.86581
X4.72404Y3.86581
X5.32404Y3.96581
X4.72404Y3.96581
X5.32404Y4.06581
X4.72404Y4.06581
X5.32404Y4.16581
X4.72404Y4.16581
X5.32404Y4.26581
X4.72404Y4.26581
X5.32404Y4.36581
X4.72404Y4.36581
X2.00377Y2.94067
X2.60377Y2.94067
X2.00377Y2.84067
X2.60377Y2.84067
X2.00377Y2.74067
X2.60377Y2.74067
X2.00377Y2.64067
X2.60377Y2.64067
X2.00377Y2.54067
X2.60377Y2.54067
X2.00377Y2.44067
X2.60377Y2.44067
X2.00377Y2.34067
X2.60377Y2.34067
X2.00377Y2.24067
X2.60377Y2.24067
X2.00377Y2.14067
X2.60377Y2.14067
X2.00377Y2.04067
X2.60377Y2.04067
X2.00377Y1.94067
X2.60377Y1.94067
X2.00377Y1.84067
X2.60377Y1.84067
X2.00377Y1.74067
X2.60377Y1.74067
X2.00377Y1.64067
X2.60377Y1.64067
X2.00377Y1.54067
X2.60377Y1.54067
X2.00377Y1.44067
X2.60377Y1.44067
X2.00377Y1.34067
X2.60377Y1.34067
X2.00377Y1.24067
X2.60377Y1.24067
X2.00377Y1.14067
X2.60377Y1.14067
X2.00377Y1.04067
X2.60377Y1.04067
X2.00377Y0.94067
X2.60377Y0.94067
X2.00377Y0.84067
X2.60377Y0.84067
X2.00377Y0.74067
X2.60377Y0.74067
X2.00377Y0.64067
X2.60377Y0.64067
M30
