G04 DesignSpark PCB PRO Gerber Version 10.0 Build 5299*
G04 #@! TF.Part,CustomerPanel*
G04 #@! TF.FileFunction,Soldermask,Top*
G04 #@! TF.FilePolarity,Negative*
%FSLAX35Y35*%
%MOIN*%
G04 #@! TA.AperFunction,WasherPad*
%ADD13R,0.43308X2.57639*%
%ADD10R,0.11812X0.11812*%
G04 #@! TD.AperFunction*
%ADD19C,0.00500*%
%ADD11C,0.00800*%
G04 #@! TA.AperFunction,ComponentPad*
%ADD17O,0.07287X0.05712*%
G04 #@! TA.AperFunction,SMDPad,CuDef*
%ADD15R,0.35633X0.06893*%
G04 #@! TA.AperFunction,ComponentPad*
%ADD18C,0.04924*%
G04 #@! TD.AperFunction*
X0Y0D02*
D02*
D13*
X128563Y227698D03*
D02*
D15*
X132342Y347833D03*
Y337833D03*
Y327833D03*
Y317833D03*
Y307833D03*
Y297833D03*
Y287833D03*
Y277833D03*
Y267833D03*
Y257833D03*
Y247833D03*
Y237833D03*
Y227833D03*
Y217833D03*
Y207833D03*
Y197833D03*
Y187833D03*
Y177833D03*
Y167833D03*
Y157833D03*
Y147833D03*
Y137833D03*
Y127833D03*
Y117833D03*
Y107833D03*
D02*
D17*
X200377Y294067D03*
X260377D03*
X200377Y284067D03*
X260377D03*
X200377Y274067D03*
X260377D03*
X200377Y264067D03*
X260377D03*
X200377Y254067D03*
X260377D03*
X200377Y244067D03*
X260377D03*
X200377Y234067D03*
X260377D03*
X200377Y224067D03*
X260377D03*
X200377Y214067D03*
X260377D03*
X200377Y204067D03*
X260377D03*
X200377Y194067D03*
X260377D03*
X200377Y184067D03*
X260377D03*
X200377Y174067D03*
X260377D03*
X200377Y164067D03*
X260377D03*
X200377Y154067D03*
X260377D03*
X200377Y144067D03*
X260377D03*
X200377Y134067D03*
X260377D03*
X200377Y124067D03*
X260377D03*
X200377Y114067D03*
X260377D03*
X200377Y104067D03*
X260377D03*
X200377Y94067D03*
X260377D03*
X200377Y84067D03*
X260377D03*
X200377Y74067D03*
X260377D03*
X200377Y64067D03*
X260377D03*
D02*
D18*
X319127Y70317D03*
X328970D03*
X338812D03*
X319127Y57325D03*
X328970D03*
X338812D03*
D02*
D19*
X110294Y351372D02*
G75*
G02*
X115574Y356652I5280J0D01*
G01*
X157932D01*
Y402831D01*
G75*
G02*
X162932Y407831I5000J0D01*
G01*
X195846D01*
G75*
G03*
X200846Y412831I0J5000D01*
G01*
Y442817D01*
G75*
G02*
X207096Y449067I6250J0D01*
G01*
X332316D01*
G75*
G02*
X338566Y442817I0J-6250D01*
G01*
Y417197D01*
G75*
G03*
X346066Y409697I7500J0D01*
G01*
X353970D01*
G75*
G02*
X360220Y403447I0J-6250D01*
G01*
Y360587D01*
X350446D01*
Y352713D01*
X360220D01*
Y102949D01*
X350444D01*
Y95075D01*
X360220D01*
Y57817D01*
G75*
G02*
X353970Y51567I-6250J0D01*
G01*
X162932D01*
G75*
G02*
X157932Y56567I0J5000D01*
G01*
Y99014D01*
X115792D01*
G75*
G02*
X110294Y104511I0J5497D01*
G01*
Y351372D01*
D02*
D10*
X155570Y20085D03*
Y481313D03*
X577212Y20085D03*
D02*
D13*
X604219Y272950D03*
D02*
D15*
X600439Y152816D03*
Y162816D03*
Y172816D03*
Y182816D03*
Y192816D03*
Y202816D03*
Y212816D03*
Y222816D03*
Y232816D03*
Y242816D03*
Y252816D03*
Y262816D03*
Y272816D03*
Y282816D03*
Y292816D03*
Y302816D03*
Y312816D03*
Y322816D03*
Y332816D03*
Y342816D03*
Y352816D03*
Y362816D03*
Y372816D03*
Y382816D03*
Y392816D03*
D02*
D17*
X532404Y206581D03*
X472404D03*
X532404Y216581D03*
X472404D03*
X532404Y226581D03*
X472404D03*
X532404Y236581D03*
X472404D03*
X532404Y246581D03*
X472404D03*
X532404Y256581D03*
X472404D03*
X532404Y266581D03*
X472404D03*
X532404Y276581D03*
X472404D03*
X532404Y286581D03*
X472404D03*
X532404Y296581D03*
X472404D03*
X532404Y306581D03*
X472404D03*
X532404Y316581D03*
X472404D03*
X532404Y326581D03*
X472404D03*
X532404Y336581D03*
X472404D03*
X532404Y346581D03*
X472404D03*
X532404Y356581D03*
X472404D03*
X532404Y366581D03*
X472404D03*
X532404Y376581D03*
X472404D03*
X532404Y386581D03*
X472404D03*
X532404Y396581D03*
X472404D03*
X532404Y406581D03*
X472404D03*
X532404Y416581D03*
X472404D03*
X532404Y426581D03*
X472404D03*
X532404Y436581D03*
X472404D03*
D02*
D18*
X413654Y430331D03*
X403811D03*
X393969D03*
X413654Y443323D03*
X403811D03*
X393969D03*
D02*
D19*
X622487Y149277D02*
G75*
G02*
X617207Y143997I-5280J0D01*
G01*
X574849D01*
Y97817D01*
G75*
G02*
X569849Y92817I-5000J0D01*
G01*
X536935D01*
G75*
G03*
X531935Y87817I0J-5000D01*
G01*
Y57831D01*
G75*
G02*
X525685Y51581I-6250J0D01*
G01*
X400465D01*
G75*
G02*
X394215Y57831I0J6250D01*
G01*
Y83451D01*
G75*
G03*
X386715Y90951I-7500J0D01*
G01*
X378811D01*
G75*
G02*
X372561Y97201I0J6250D01*
G01*
Y140061D01*
X382335D01*
Y147935D01*
X372561D01*
Y397699D01*
X382337D01*
Y405573D01*
X372561D01*
Y442831D01*
G75*
G02*
X378811Y449081I6250J0D01*
G01*
X569849D01*
G75*
G02*
X574849Y444081I0J-5000D01*
G01*
Y401635D01*
X616989D01*
G75*
G02*
X622487Y396137I0J-5497D01*
G01*
Y149277D01*
D02*
D11*
X559044Y449831D02*
G75*
G02*
Y461628I0J5899D01*
G01*
X622487D01*
Y500998D01*
X110294D01*
Y461628D01*
X217794D01*
G75*
G02*
Y449817I0J-5906D01*
G01*
X207096D01*
G75*
G03*
X200096Y442817I0J-7000D01*
G01*
Y412831D01*
G75*
G02*
X195846Y408581I-4250J0D01*
G01*
X162932D01*
G75*
G03*
X157182Y402831I0J-5750D01*
G01*
Y356838D01*
X115411D01*
G75*
G03*
X110294Y351721I0J-5117D01*
G01*
Y104236D01*
G75*
G03*
X115661Y98870I5367J0D01*
G01*
X157182D01*
Y56567D01*
G75*
G03*
X162680Y51070I5497J0D01*
G01*
X174044D01*
G75*
G02*
Y40023I0J-5524D01*
G01*
X110294D01*
Y400D01*
X622487D01*
Y40087D01*
X515294D01*
G75*
G02*
Y50831I0J5372D01*
G01*
X525685D01*
G75*
G03*
X532685Y57831I0J7000D01*
G01*
Y87817D01*
G75*
G02*
X536935Y92067I4250J0D01*
G01*
X569849D01*
G75*
G03*
X575599Y97817I0J5750D01*
G01*
Y143799D01*
X616870D01*
G75*
G03*
X622487Y149415I0J5616D01*
G01*
Y396026D01*
G75*
G03*
X616746Y401767I-5741J0D01*
G01*
X575599D01*
Y444081D01*
G75*
G03*
X569849Y449831I-5750J0D01*
G01*
X559044D01*
X387794D02*
X378811D01*
G75*
G03*
X371811Y442831I0J-7000D01*
G01*
Y406150D01*
G75*
G03*
X372561Y405400I750J0D01*
G01*
X381587D01*
Y397900D01*
X372561D01*
G75*
G03*
X371811Y397150I0J-750D01*
G01*
Y148543D01*
G75*
G03*
X372561Y147793I750J0D01*
G01*
X381585D01*
Y140180D01*
X372561D01*
G75*
G03*
X371811Y139430I0J-750D01*
G01*
Y97201D01*
G75*
G03*
X378811Y90201I7000J0D01*
G01*
X386715D01*
G75*
G02*
X393465Y83451I0J-6750D01*
G01*
Y57831D01*
G75*
G03*
X400465Y50831I7000J0D01*
G01*
X410321D01*
G75*
G02*
Y40087I0J-5372D01*
G01*
X344044D01*
G75*
G02*
Y51135I0J5524D01*
G01*
X354287D01*
G75*
G03*
X360970Y57817I0J6683D01*
G01*
Y94500D01*
G75*
G03*
X360220Y95250I-750J0D01*
G01*
X351194D01*
Y102739D01*
X360220D01*
G75*
G03*
X360970Y103489I0J750D01*
G01*
Y352150D01*
G75*
G03*
X360220Y352900I-750J0D01*
G01*
X351196D01*
Y360400D01*
X360220D01*
G75*
G03*
X360970Y361150I0J750D01*
G01*
Y403447D01*
G75*
G03*
X353970Y410447I-7000J0D01*
G01*
X346066D01*
G75*
G02*
X339316Y417197I0J6750D01*
G01*
Y442817D01*
G75*
G03*
X332316Y449817I-7000J0D01*
G01*
X321544D01*
G75*
G02*
Y461628I0J5906D01*
G01*
X387794D01*
G75*
G02*
Y449831I0J-5898D01*
G01*
X0Y0D02*
M02*
