G04 DesignSpark PCB PRO Gerber Version 10.0 Build 5299*
G04 #@! TF.Part,CustomerPanel*
G04 #@! TF.FilePolarity,Positive*
%FSLAX35Y35*%
%MOIN*%
%ADD11C,0.00800*%
G04 #@! TA.AperFunction,ViaDrill*
%ADD71C,0.01181*%
%ADD20C,0.01600*%
G04 #@! TA.AperFunction,ComponentDrill*
%ADD23C,0.02756*%
%ADD22C,0.03346*%
G04 #@! TA.AperFunction,MechanicalDrill*
%ADD70C,0.15748*%
%ADD21C,0.18504*%
G04 #@! TD.AperFunction*
X0Y0D02*
D02*
D71*
X219127Y402817D03*
Y395317D03*
X341096Y369067D03*
X344846D03*
X209127Y339917D03*
X221791Y324415D03*
X225784Y324317D03*
X238265D03*
X250745D03*
X263350D03*
X288311D03*
X325876D03*
X275456Y324296D03*
X300791D03*
X313271D03*
X338232D03*
X178109Y316683D03*
X230377Y311567D03*
X255377D03*
X280377D03*
X305377D03*
X330377D03*
X168500Y302081D03*
X178234D03*
X206565Y297817D03*
X242877Y296567D03*
X267897Y296465D03*
X292897D03*
X317897D03*
X175377Y293969D03*
X166627Y292817D03*
X164127Y290317D03*
X350587Y290100D03*
X210377Y289067D03*
X230377D03*
X247877D03*
X175377Y284067D03*
X302039Y281987D03*
X278826Y280864D03*
X299793Y278992D03*
X340978Y278867D03*
X344728D03*
X306657Y278865D03*
X278701Y277120D03*
X297546Y275747D03*
X304410Y275716D03*
X161627Y274067D03*
X295300Y272627D03*
X278701Y272566D03*
X165377Y270317D03*
X292679Y269507D03*
X281946Y269417D03*
X278451Y266267D03*
X167877Y264067D03*
X281821Y263117D03*
X175377Y259067D03*
X210377D03*
X230377D03*
X318887Y256818D03*
X164127Y254067D03*
X170377D03*
X295377D03*
X307877D03*
X230377Y250317D03*
X275377D03*
X210377Y249067D03*
X250377D03*
X315377D03*
X321627D03*
X326625Y243922D03*
X160377Y242817D03*
X170377D03*
X295377D03*
X321633Y241070D03*
X340377Y239067D03*
X344127D03*
X325502Y237920D03*
X159127Y237817D03*
X347794Y235317D03*
X167877Y234067D03*
X305377D03*
X315377D03*
X325627D03*
X270838Y234063D03*
X160377Y232817D03*
X250377Y229067D03*
X301665Y228472D03*
X159127Y227817D03*
X317877Y225322D03*
X307877Y225317D03*
X294800Y222331D03*
X315377Y222172D03*
X230377Y221567D03*
X302877D03*
X161627Y220317D03*
X307877Y219067D03*
X342794D03*
X312877Y219023D03*
X298169Y218213D03*
X230377Y216567D03*
X294676Y215873D03*
X310377D03*
X175377Y214067D03*
X302877D03*
X298420Y212724D03*
X307877D03*
X164127Y210317D03*
X280377Y209067D03*
X295377D03*
X256236Y208728D03*
X166627Y207817D03*
X172877Y205317D03*
X326544D03*
X165377Y201567D03*
X342794Y200317D03*
X232877Y194067D03*
X164112Y192817D03*
X175377Y189067D03*
X256111Y189009D03*
X165377Y187833D03*
X247874Y185889D03*
X232773Y184067D03*
X247874Y179649D03*
X210377Y179067D03*
X230377D03*
X344275Y177817D03*
X317877Y175655D03*
X287877Y175654D03*
X297877D03*
X302877D03*
X307877D03*
X312877D03*
X247874Y174157D03*
X232877Y174067D03*
X326627D03*
X297877Y171661D03*
X334039Y169165D03*
X210377Y169067D03*
X230377D03*
X341627D03*
X247877Y167817D03*
X302788D03*
X307905D03*
X331480Y166919D03*
X165377Y164067D03*
X232877D03*
X310377Y161567D03*
X247877Y160317D03*
X326361Y156567D03*
X285690Y155317D03*
X297877D03*
X232877Y154067D03*
X175377Y152817D03*
X247877D03*
X206627Y149067D03*
X232877Y144067D03*
X246377Y141833D03*
X241759Y141709D03*
X287877Y139088D03*
X210377Y139067D03*
X230377D03*
X302788Y135094D03*
X307905D03*
X246377Y134345D03*
X170377Y134067D03*
X277877Y132972D03*
X165377Y129067D03*
X180377D03*
X230377D03*
X250377D03*
X210377Y119067D03*
X230377D03*
X250377D03*
X292877Y117817D03*
X317877Y116567D03*
X210377Y109067D03*
X230377D03*
X250377D03*
X312877D03*
X345720Y107263D03*
X165377Y105317D03*
X180377D03*
X330377Y99276D03*
X302877Y99151D03*
X210377Y99067D03*
X230377D03*
X250377D03*
X297877Y99026D03*
X272877Y98901D03*
X292877Y97817D03*
X210377Y89067D03*
X230377D03*
X250377D03*
X216502Y86389D03*
X222118D03*
D02*
D20*
X205377Y444067D03*
X230377D03*
X255377D03*
X280377D03*
X305377D03*
X330377D03*
X205377Y419067D03*
X230377Y418857D03*
X255377D03*
X280377D03*
X305377D03*
X165377Y401567D03*
X192877D03*
X355377Y394067D03*
X230377Y393896D03*
X305377D03*
X165377Y379067D03*
X192877D03*
X355377Y369067D03*
X230377Y369061D03*
X255377D03*
X280377D03*
X305377D03*
X165377Y356567D03*
X192877D03*
X230377Y354028D03*
X255377D03*
X280377D03*
X305377D03*
X330377D03*
X355377Y344067D03*
X156627Y337833D03*
X162877D03*
Y327817D03*
X202877Y321567D03*
X207877D03*
X355377Y319067D03*
X202877Y314067D03*
X207877D03*
X166627Y311567D03*
X171627D03*
X185377Y304067D03*
X191627D03*
X157877Y302330D03*
X332877Y284067D03*
X157877Y282817D03*
X355377Y269067D03*
X157877Y262817D03*
Y252817D03*
X275377Y230317D03*
X355377Y219067D03*
X156627Y212817D03*
X295377Y204067D03*
X156627Y192817D03*
X326376Y191567D03*
X156627Y182817D03*
X272877Y175317D03*
X156627Y172817D03*
X355377Y169067D03*
X156627Y162817D03*
X355377Y144067D03*
X156627Y142817D03*
X325377Y135317D03*
X335377D03*
X240377Y129067D03*
X156627Y122817D03*
X272877Y117817D03*
X340377Y111567D03*
X355377D03*
X162877Y99067D03*
X180377D03*
X355377Y86567D03*
X180377Y75317D03*
X355377Y61567D03*
X185377Y59067D03*
X191627D03*
X164127Y57817D03*
X180377D03*
X345377D03*
X225377Y56567D03*
X250377D03*
X275377D03*
X299127D03*
D02*
D21*
X192972Y338384D03*
X173287Y117281D03*
D02*
D22*
X200377Y294067D03*
X260377D03*
X200377Y284067D03*
X260377D03*
X200377Y274067D03*
X260377D03*
X200377Y264067D03*
X260377D03*
X200377Y254067D03*
X260377D03*
X200377Y244067D03*
X260377D03*
X200377Y234067D03*
X260377D03*
X200377Y224067D03*
X260377D03*
X200377Y214067D03*
X260377D03*
X200377Y204067D03*
X260377D03*
X200377Y194067D03*
X260377D03*
X200377Y184067D03*
X260377D03*
X200377Y174067D03*
X260377D03*
X200377Y164067D03*
X260377D03*
X200377Y154067D03*
X260377D03*
X200377Y144067D03*
X260377D03*
X200377Y134067D03*
X260377D03*
X200377Y124067D03*
X260377D03*
X200377Y114067D03*
X260377D03*
X200377Y104067D03*
X260377D03*
X200377Y94067D03*
X260377D03*
X200377Y84067D03*
X260377D03*
X200377Y74067D03*
X260377D03*
X200377Y64067D03*
X260377D03*
D02*
D23*
X319127Y70317D03*
X328970D03*
X338812D03*
X319127Y57325D03*
X328970D03*
X338812D03*
D02*
D71*
X513654Y97831D03*
Y105331D03*
X391685Y131581D03*
X387935D03*
X523654Y160731D03*
X510991Y176233D03*
X506997Y176331D03*
X494517D03*
X482036D03*
X469431D03*
X444470D03*
X406905D03*
X457325Y176353D03*
X431990D03*
X419510D03*
X394549D03*
X554672Y183966D03*
X502404Y189081D03*
X477404D03*
X452404D03*
X427404D03*
X402404D03*
X564281Y198568D03*
X554547D03*
X526217Y202831D03*
X489904Y204081D03*
X464884Y204184D03*
X439884D03*
X414884D03*
X557404Y206680D03*
X566154Y207831D03*
X568654Y210331D03*
X382194Y210549D03*
X522404Y211581D03*
X502404D03*
X484904D03*
X557404Y216581D03*
X430742Y218661D03*
X453956Y219784D03*
X432989Y221656D03*
X391804Y221781D03*
X388054D03*
X426124Y221783D03*
X454080Y223528D03*
X435235Y224901D03*
X428371Y224933D03*
X571154Y226581D03*
X437481Y228021D03*
X454080Y228082D03*
X567404Y230331D03*
X440102Y231141D03*
X450835Y231232D03*
X454330Y234381D03*
X564904Y236581D03*
X450960Y237531D03*
X557404Y241581D03*
X522404D03*
X502404D03*
X413894Y243830D03*
X568654Y246581D03*
X562404D03*
X437404D03*
X424904D03*
X502404Y250331D03*
X457404D03*
X522404Y251581D03*
X482404D03*
X417404D03*
X411154D03*
X406156Y256726D03*
X572404Y257831D03*
X562404D03*
X437404D03*
X411148Y259578D03*
X392404Y261581D03*
X388654D03*
X407279Y262728D03*
X573654Y262831D03*
X384987Y265331D03*
X564904Y266581D03*
X427404D03*
X417404D03*
X407154D03*
X461943Y266585D03*
X572404Y267831D03*
X482404Y271581D03*
X431117Y272177D03*
X573654Y272831D03*
X414904Y275326D03*
X424904Y275331D03*
X437981Y278317D03*
X417404Y278476D03*
X502404Y279081D03*
X429904D03*
X571154Y280331D03*
X424904Y281581D03*
X389987D03*
X419904Y281626D03*
X434613Y282435D03*
X502404Y284081D03*
X438106Y284775D03*
X422404D03*
X557404Y286581D03*
X429904D03*
X434361Y287925D03*
X424904D03*
X568654Y290331D03*
X452404Y291581D03*
X437404D03*
X476545Y291920D03*
X566154Y292831D03*
X559904Y295331D03*
X406237D03*
X567404Y299081D03*
X389987Y300331D03*
X499904Y306581D03*
X568669Y307831D03*
X557404Y311581D03*
X476670Y311639D03*
X567404Y312816D03*
X484907Y314759D03*
X500008Y316581D03*
X484907Y321000D03*
X522404Y321581D03*
X502404D03*
X388506Y322831D03*
X414904Y324993D03*
X444904Y324994D03*
X434904D03*
X429904D03*
X424904D03*
X419904D03*
X484907Y326491D03*
X499904Y326581D03*
X406154D03*
X434904Y328987D03*
X398743Y331483D03*
X522404Y331581D03*
X502404D03*
X391154D03*
X484904Y332831D03*
X429993D03*
X424876D03*
X401302Y333730D03*
X567404Y336581D03*
X499904D03*
X422404Y339081D03*
X484904Y340331D03*
X406420Y344081D03*
X447091Y345331D03*
X434904D03*
X499904Y346581D03*
X557404Y347831D03*
X484904D03*
X526154Y351581D03*
X499904Y356581D03*
X486404Y358815D03*
X491022Y358940D03*
X444904Y361561D03*
X522404Y361581D03*
X502404D03*
X429993Y365554D03*
X424876D03*
X486404Y366303D03*
X562404Y366581D03*
X454904Y367676D03*
X567404Y371581D03*
X552404D03*
X502404D03*
X482404D03*
X522404Y381581D03*
X502404D03*
X482404D03*
X439904Y382831D03*
X414904Y384081D03*
X522404Y391581D03*
X502404D03*
X482404D03*
X419904D03*
X387061Y393385D03*
X567404Y395331D03*
X552404D03*
X402404Y401373D03*
X429904Y401498D03*
X522404Y401581D03*
X502404D03*
X482404D03*
X434904Y401622D03*
X459904Y401747D03*
X439904Y402831D03*
X522404Y411581D03*
X502404D03*
X482404D03*
X516279Y414259D03*
X510663D03*
D02*
D20*
X527404Y56581D03*
X502404D03*
X477404D03*
X452404D03*
X427404D03*
X402404D03*
X527404Y81581D03*
X502404Y81791D03*
X477404D03*
X452404D03*
X427404D03*
X567404Y99081D03*
X539904D03*
X377404Y106581D03*
X502404Y106752D03*
X427404D03*
X567404Y121581D03*
X539904D03*
X377404Y131581D03*
X502404Y131588D03*
X477404D03*
X452404D03*
X427404D03*
X567404Y144081D03*
X539904D03*
X502404Y146620D03*
X477404D03*
X452404D03*
X427404D03*
X402404D03*
X377404Y156581D03*
X576154Y162816D03*
X569904D03*
Y172831D03*
X529904Y179081D03*
X524904D03*
X377404Y181581D03*
X529904Y186581D03*
X524904D03*
X566154Y189081D03*
X561154D03*
X547404Y196581D03*
X541154D03*
X574904Y198318D03*
X399904Y216581D03*
X574904Y217831D03*
X377404Y231581D03*
X574904Y237831D03*
Y247831D03*
X457404Y270331D03*
X377404Y281581D03*
X576154Y287831D03*
X437404Y296581D03*
X576154Y307831D03*
X406406Y309081D03*
X576154Y317831D03*
X459904Y325331D03*
X576154Y327831D03*
X377404Y331581D03*
X576154Y337831D03*
X377404Y356581D03*
X576154Y357831D03*
X407404Y365331D03*
X397404D03*
X492404Y371581D03*
X576154Y377831D03*
X459904Y382831D03*
X392404Y389081D03*
X377404D03*
X569904Y401581D03*
X552404D03*
X377404Y414081D03*
X552404Y425331D03*
X377404Y439081D03*
X547404Y441581D03*
X541154D03*
X568654Y442831D03*
X552404D03*
X387404D03*
X507404Y444081D03*
X482404D03*
X457404D03*
X433654D03*
D02*
D21*
X539809Y162265D03*
X559494Y383367D03*
D02*
D22*
X532404Y206581D03*
X472404D03*
X532404Y216581D03*
X472404D03*
X532404Y226581D03*
X472404D03*
X532404Y236581D03*
X472404D03*
X532404Y246581D03*
X472404D03*
X532404Y256581D03*
X472404D03*
X532404Y266581D03*
X472404D03*
X532404Y276581D03*
X472404D03*
X532404Y286581D03*
X472404D03*
X532404Y296581D03*
X472404D03*
X532404Y306581D03*
X472404D03*
X532404Y316581D03*
X472404D03*
X532404Y326581D03*
X472404D03*
X532404Y336581D03*
X472404D03*
X532404Y346581D03*
X472404D03*
X532404Y356581D03*
X472404D03*
X532404Y366581D03*
X472404D03*
X532404Y376581D03*
X472404D03*
X532404Y386581D03*
X472404D03*
X532404Y396581D03*
X472404D03*
X532404Y406581D03*
X472404D03*
X532404Y416581D03*
X472404D03*
X532404Y426581D03*
X472404D03*
X532404Y436581D03*
X472404D03*
D02*
D23*
X413654Y430331D03*
X403811D03*
X393969D03*
X413654Y443323D03*
X403811D03*
X393969D03*
D02*
D11*
X559044Y449831D02*
G75*
G02*
Y461628I0J5899D01*
G01*
X622487D01*
Y500998D01*
X110294D01*
Y461628D01*
X217794D01*
G75*
G02*
Y449817I0J-5906D01*
G01*
X207096D01*
G75*
G03*
X200096Y442817I0J-7000D01*
G01*
Y412831D01*
G75*
G02*
X195846Y408581I-4250J0D01*
G01*
X162932D01*
G75*
G03*
X157182Y402831I0J-5750D01*
G01*
Y356838D01*
X115411D01*
G75*
G03*
X110294Y351721I0J-5117D01*
G01*
Y104236D01*
G75*
G03*
X115661Y98870I5367J0D01*
G01*
X157182D01*
Y56567D01*
G75*
G03*
X162680Y51070I5497J0D01*
G01*
X174044D01*
G75*
G02*
Y40023I0J-5524D01*
G01*
X110294D01*
Y400D01*
X622487D01*
Y40087D01*
X515294D01*
G75*
G02*
Y50831I0J5372D01*
G01*
X525685D01*
G75*
G03*
X532685Y57831I0J7000D01*
G01*
Y87817D01*
G75*
G02*
X536935Y92067I4250J0D01*
G01*
X569849D01*
G75*
G03*
X575599Y97817I0J5750D01*
G01*
Y143799D01*
X616870D01*
G75*
G03*
X622487Y149415I0J5616D01*
G01*
Y396026D01*
G75*
G03*
X616746Y401767I-5741J0D01*
G01*
X575599D01*
Y444081D01*
G75*
G03*
X569849Y449831I-5750J0D01*
G01*
X559044D01*
X387794D02*
X378811D01*
G75*
G03*
X371811Y442831I0J-7000D01*
G01*
Y406150D01*
G75*
G03*
X372561Y405400I750J0D01*
G01*
X381587D01*
Y397900D01*
X372561D01*
G75*
G03*
X371811Y397150I0J-750D01*
G01*
Y148543D01*
G75*
G03*
X372561Y147793I750J0D01*
G01*
X381585D01*
Y140180D01*
X372561D01*
G75*
G03*
X371811Y139430I0J-750D01*
G01*
Y97201D01*
G75*
G03*
X378811Y90201I7000J0D01*
G01*
X386715D01*
G75*
G02*
X393465Y83451I0J-6750D01*
G01*
Y57831D01*
G75*
G03*
X400465Y50831I7000J0D01*
G01*
X410321D01*
G75*
G02*
Y40087I0J-5372D01*
G01*
X344044D01*
G75*
G02*
Y51135I0J5524D01*
G01*
X354287D01*
G75*
G03*
X360970Y57817I0J6683D01*
G01*
Y94500D01*
G75*
G03*
X360220Y95250I-750J0D01*
G01*
X351194D01*
Y102739D01*
X360220D01*
G75*
G03*
X360970Y103489I0J750D01*
G01*
Y352150D01*
G75*
G03*
X360220Y352900I-750J0D01*
G01*
X351196D01*
Y360400D01*
X360220D01*
G75*
G03*
X360970Y361150I0J750D01*
G01*
Y403447D01*
G75*
G03*
X353970Y410447I-7000J0D01*
G01*
X346066D01*
G75*
G02*
X339316Y417197I0J6750D01*
G01*
Y442817D01*
G75*
G03*
X332316Y449817I-7000J0D01*
G01*
X321544D01*
G75*
G02*
Y461628I0J5906D01*
G01*
X387794D01*
G75*
G02*
Y449831I0J-5898D01*
G01*
D02*
D70*
X129980Y20085D03*
Y481313D03*
X602802Y20085D03*
Y481313D03*
X0Y0D02*
M02*
